<svg width="304" height="74" viewBox="0 0 304 74" fill="none" xmlns="http://www.w3.org/2000/svg">
<path d="M45.0073 24.1877C46.7591 21.6916 47.7903 18.6527 47.7903 15.3715C47.7903 6.88274 40.9076 0 32.418 0C23.9284 0 17.0464 6.88274 17.0464 15.3715C17.0464 18.6527 18.0773 21.6912 19.8291 24.1877C-0.706963 31.7687 -4.67871 52.9478 5.08436 66.218C6.81797 68.5748 8.98466 70.6826 11.5695 72.419C15.7915 75.2561 22.5714 74.0247 22.2339 66.9635V63.2884C22.2339 59.7982 20.6981 58.4836 18.3756 58.4836H17.9037C16.2989 58.4836 15.5485 56.2644 16.753 55.0789L29.3278 44.3689C31.2087 42.5195 33.6959 42.4622 35.6349 44.3689L48.2097 55.0789C49.4142 56.2644 48.6634 58.4836 47.0581 58.4836H46.5871C44.2638 58.4836 42.7288 59.7982 42.7288 63.2884C42.7288 69.489 42.6985 66.8388 42.8313 67.9916C43.6333 74.9522 50.3461 74.3342 53.486 72.4186C56.1447 70.7968 58.238 68.5744 59.9716 66.2176C69.7355 52.9478 65.5433 31.7691 45.0073 24.1877Z" fill="#FF765E"/>
<path d="M36.3615 67.7472C36.3615 68.4818 35.7657 69.078 35.0307 69.078H29.9728C29.2374 69.078 28.6416 68.4818 28.6416 67.7472V62.6889C28.6416 61.9539 29.2374 61.3573 29.9728 61.3573H35.0307C35.7657 61.3573 36.3615 61.9539 36.3615 62.6889V67.7472Z" fill="#FF765E"/>
<path d="M81.1426 26.9376V0.441711H87.3123L98.2892 18.4589H95.034L105.708 0.441711H111.878L111.954 26.9376H105.065L104.989 10.9265H106.162L98.1757 24.3259H94.8448L86.631 10.9265H88.0694V26.9376H81.1426Z" fill="white"/>
<path d="M117.257 26.9376V0.441711H124.751V26.9376H117.257Z" fill="white"/>
<path d="M130.083 26.9376V0.441711H137.578V20.995H150.22V26.9376H130.083Z" fill="white"/>
<path d="M159.885 21.0707L159.469 12.6677L170.862 0.441711H179.114L167.758 12.7434L163.595 17.0963L159.885 21.0707ZM153.186 26.9376V0.441711H160.605V26.9376H153.186ZM170.976 26.9376L162.346 15.9986L167.229 10.7751L179.682 26.9376H170.976Z" fill="white"/>
<path d="M188.537 10.6994H200.839V16.3014H188.537V10.6994ZM189.067 21.1464H202.921V26.9376H181.648V0.441711H202.429V6.23296H189.067V21.1464Z" fill="white"/>
<path d="M87.8671 66.9969L87.4508 58.5939L98.844 46.368H107.096L95.7402 58.6696L91.5766 63.0225L87.8671 66.9969ZM81.1675 72.8639V46.368H88.5863V72.8639H81.1675ZM98.9576 72.8639L90.3275 61.9249L95.2103 56.7014L107.663 72.8639H98.9576Z" fill="white"/>
<path d="M127.344 46.368H134.839V72.8639H127.344V46.368ZM117.124 72.8639H109.63V46.368H117.124V72.8639ZM127.874 62.5305H116.595V56.3229H127.874V62.5305Z" fill="white"/>
<path d="M147.014 56.6257H159.316V62.2277H147.014V56.6257ZM147.544 67.0726H161.398V72.8639H140.125V46.368H160.906V52.1592H147.544V67.0726Z" fill="white"/>
<path d="M165.557 72.8639V46.368H177.669C180.092 46.368 182.173 46.7591 183.915 47.5414C185.681 48.3236 187.044 49.4592 188.003 50.948C188.961 52.4116 189.441 54.1527 189.441 56.1715C189.441 58.165 188.961 59.8935 188.003 61.3571C187.044 62.7954 185.681 63.9057 183.915 64.688C182.173 65.445 180.092 65.8235 177.669 65.8235H169.72L173.051 62.6819V72.8639H165.557ZM181.946 72.8639L175.36 63.2118H183.347L189.971 72.8639H181.946ZM173.051 63.4768L169.72 60.0323H177.215C178.779 60.0323 179.94 59.6916 180.697 59.0103C181.479 58.329 181.871 57.3827 181.871 56.1715C181.871 54.935 181.479 53.9761 180.697 53.2948C179.94 52.6134 178.779 52.2728 177.215 52.2728H169.72L173.051 48.8283V63.4768Z" fill="white"/>
<path d="M200.464 56.6257H212.766V62.2277H200.464V56.6257ZM200.994 67.0726H214.848V72.8639H193.576V46.368H214.356V52.1592H200.994V67.0726Z" fill="white"/>
<path d="M225.896 56.6257H238.197V62.2277H225.896V56.6257ZM226.426 67.0726H240.279V72.8639H219.007V46.368H239.787V52.1592H226.426V67.0726Z" fill="white"/>
<path d="M244.438 72.8639V46.368H256.967C259.894 46.368 262.468 46.9105 264.689 47.9956C266.909 49.0807 268.638 50.6073 269.874 52.5756C271.136 54.5439 271.767 56.8906 271.767 59.6159C271.767 62.316 271.136 64.6628 269.874 66.6563C268.638 68.6245 266.909 70.1512 264.689 71.2363C262.468 72.3214 259.894 72.8639 256.967 72.8639H244.438ZM251.933 66.8834H256.664C258.178 66.8834 259.49 66.6058 260.601 66.0507C261.736 65.4703 262.619 64.6375 263.25 63.5525C263.881 62.4422 264.197 61.13 264.197 59.6159C264.197 58.0766 263.881 56.7645 263.25 55.6794C262.619 54.5943 261.736 53.7742 260.601 53.2191C259.49 52.6387 258.178 52.3485 256.664 52.3485H251.933V66.8834Z" fill="white"/>
<path d="M289.071 73.3938C286.952 73.3938 284.996 73.0531 283.204 72.3718C281.413 71.6905 279.848 70.7316 278.511 69.4951C277.199 68.2334 276.177 66.7698 275.445 65.1044C274.713 63.4389 274.347 61.6094 274.347 59.6159C274.347 57.6224 274.713 55.7929 275.445 54.1275C276.177 52.462 277.199 51.0111 278.511 49.7746C279.848 48.5129 281.413 47.5414 283.204 46.86C284.996 46.1787 286.952 45.8381 289.071 45.8381C291.216 45.8381 293.172 46.1787 294.938 46.86C296.73 47.5414 298.282 48.5129 299.594 49.7746C300.906 51.0111 301.928 52.462 302.66 54.1275C303.417 55.7929 303.796 57.6224 303.796 59.6159C303.796 61.6094 303.417 63.4515 302.66 65.1422C301.928 66.8077 300.906 68.2586 299.594 69.4951C298.282 70.7316 296.73 71.6905 294.938 72.3718C293.172 73.0531 291.216 73.3938 289.071 73.3938ZM289.071 67.1862C290.081 67.1862 291.014 67.0096 291.872 66.6563C292.756 66.303 293.513 65.7983 294.143 65.1422C294.8 64.4609 295.304 63.6534 295.658 62.7197C296.036 61.7861 296.225 60.7515 296.225 59.6159C296.225 58.4552 296.036 57.4206 295.658 56.5121C295.304 55.5785 294.8 54.7836 294.143 54.1275C293.513 53.4462 292.756 52.9289 291.872 52.5756C291.014 52.2223 290.081 52.0457 289.071 52.0457C288.062 52.0457 287.116 52.2223 286.233 52.5756C285.375 52.9289 284.618 53.4462 283.961 54.1275C283.331 54.7836 282.826 55.5785 282.447 56.5121C282.094 57.4206 281.918 58.4552 281.918 59.6159C281.918 60.7515 282.094 61.7861 282.447 62.7197C282.826 63.6534 283.331 64.4609 283.961 65.1422C284.618 65.7983 285.375 66.303 286.233 66.6563C287.116 67.0096 288.062 67.1862 289.071 67.1862Z" fill="white"/>
</svg>
