<svg width="217" height="53" viewBox="0 0 217 53" fill="none" xmlns="http://www.w3.org/2000/svg">
<path d="M32.06 17.2296C33.3078 15.4516 34.0424 13.2868 34.0424 10.9496C34.0424 4.90278 29.1397 0 23.0923 0C17.0449 0 12.1427 4.90278 12.1427 10.9496C12.1427 13.2868 12.877 15.4513 14.1248 17.2296C-0.50359 22.6298 -3.33278 37.7162 3.62174 47.169C4.85663 48.8478 6.40003 50.3492 8.24131 51.5861C11.2488 53.6071 16.0782 52.7299 15.8379 47.7V45.0822C15.8379 42.596 14.7438 41.6595 13.0895 41.6595H12.7534C11.6102 41.6595 11.0757 40.0788 11.9336 39.2343L20.891 31.6053C22.2308 30.2879 24.0025 30.247 25.3838 31.6053L34.3412 39.2343C35.1991 40.0788 34.6643 41.6595 33.5209 41.6595H33.1853C31.5304 41.6595 30.4369 42.596 30.4369 45.0822C30.4369 49.499 30.4154 47.6112 30.51 48.4323C31.0813 53.3906 35.863 52.9504 38.0996 51.5858C39.9935 50.4306 41.4846 48.8475 42.7195 47.1687C49.6746 37.7162 46.6884 22.6301 32.06 17.2296Z" fill="#FF765E"/>
<path d="M25.9014 48.258C25.9014 48.7813 25.4771 49.206 24.9535 49.206H21.3506C20.8267 49.206 20.4023 48.7813 20.4023 48.258V44.6548C20.4023 44.1313 20.8267 43.7063 21.3506 43.7063H24.9535C25.4771 43.7063 25.9014 44.1313 25.9014 44.6548V48.258Z" fill="#FF765E"/>
<path d="M57.8008 19.1885V0.314697H62.1957L70.0148 13.1489H67.696L75.2995 0.314697H79.6944L79.7483 19.1885H74.8411L74.7872 7.78333H75.623L69.9339 17.3281H67.5612L61.7104 7.78333H62.7349V19.1885H57.8008Z" fill="black"/>
<path d="M83.5258 19.1885V0.314697H88.8644V19.1885H83.5258Z" fill="black"/>
<path d="M92.6626 19.1885V0.314697H98.0011V14.9554H107.007V19.1885H92.6626Z" fill="black"/>
<path d="M113.892 15.0093L113.595 9.02361L121.711 0.314697H127.589L119.5 9.07754L116.534 12.1782L113.892 15.0093ZM109.119 19.1885V0.314697H114.404V19.1885H109.119ZM121.792 19.1885L115.644 11.3963L119.122 7.67548L127.993 19.1885H121.792Z" fill="black"/>
<path d="M134.301 7.62156H143.064V11.612H134.301V7.62156ZM134.678 15.0632H144.547V19.1885H129.394V0.314697H144.196V4.43997H134.678V15.0632Z" fill="black"/>
<path d="M62.5909 47.7239L62.2943 41.7382L70.41 33.0293H76.2879L68.1991 41.7921L65.2332 44.8928L62.5909 47.7239ZM57.8185 51.9031V33.0293H63.1032V51.9031H57.8185ZM70.4909 51.9031L64.3435 44.1109L67.8216 40.3901L76.6923 51.9031H70.4909Z" fill="black"/>
<path d="M90.7116 33.0293H96.0502V51.9031H90.7116V33.0293ZM83.4317 51.9031H78.0931V33.0293H83.4317V51.9031ZM91.0891 44.5423H83.0542V40.1205H91.0891V44.5423Z" fill="black"/>
<path d="M104.723 40.3362H113.486V44.3266H104.723V40.3362ZM105.101 47.7778H114.969V51.9031H99.8159V33.0293H114.618V37.1546H105.101V47.7778Z" fill="black"/>
<path d="M117.931 51.9031V33.0293H126.559C128.285 33.0293 129.768 33.3079 131.008 33.8651C132.266 34.4224 133.237 35.2312 133.92 36.2918C134.603 37.3343 134.945 38.5746 134.945 40.0126C134.945 41.4326 134.603 42.6639 133.92 43.7065C133.237 44.7311 132.266 45.522 131.008 46.0792C129.768 46.6184 128.285 46.8881 126.559 46.8881H120.897L123.27 44.6502V51.9031H117.931ZM129.606 51.9031L124.915 45.0276H130.604L135.322 51.9031H129.606ZM123.27 45.2164L120.897 42.7628H126.236C127.35 42.7628 128.177 42.5201 128.716 42.0348C129.274 41.5495 129.552 40.8754 129.552 40.0126C129.552 39.1318 129.274 38.4488 128.716 37.9634C128.177 37.4781 127.35 37.2355 126.236 37.2355H120.897L123.27 34.7819V45.2164Z" fill="black"/>
<path d="M142.797 40.3362H151.56V44.3266H142.797V40.3362ZM143.175 47.7778H153.043V51.9031H137.89V33.0293H152.692V37.1546H143.175V47.7778Z" fill="black"/>
<path d="M160.913 40.3362H169.675V44.3266H160.913V40.3362ZM161.29 47.7778H171.158V51.9031H156.005V33.0293H170.808V37.1546H161.29V47.7778Z" fill="black"/>
<path d="M174.121 51.9031V33.0293H183.046C185.131 33.0293 186.964 33.4158 188.546 34.1887C190.128 34.9616 191.359 36.0491 192.24 37.4512C193.139 38.8532 193.588 40.5249 193.588 42.4662C193.588 44.3895 193.139 46.0612 192.24 47.4812C191.359 48.8833 190.128 49.9708 188.546 50.7437C186.964 51.5166 185.131 51.9031 183.046 51.9031H174.121ZM179.46 47.643H182.83C183.908 47.643 184.843 47.4453 185.634 47.0498C186.443 46.6364 187.072 46.0432 187.521 45.2703C187.971 44.4794 188.195 43.5447 188.195 42.4662C188.195 41.3697 187.971 40.435 187.521 39.6621C187.072 38.8892 186.443 38.305 185.634 37.9095C184.843 37.4961 183.908 37.2894 182.83 37.2894H179.46V47.643Z" fill="black"/>
<path d="M205.914 52.2806C204.405 52.2806 203.012 52.0379 201.735 51.5526C200.459 51.0673 199.345 50.3842 198.392 49.5034C197.457 48.6047 196.729 47.5621 196.208 46.3758C195.687 45.1894 195.426 43.8862 195.426 42.4662C195.426 41.0462 195.687 39.743 196.208 38.5566C196.729 37.3703 197.457 36.3367 198.392 35.4559C199.345 34.5572 200.459 33.8651 201.735 33.3798C203.012 32.8945 204.405 32.6518 205.914 32.6518C207.442 32.6518 208.835 32.8945 210.094 33.3798C211.37 33.8651 212.475 34.5572 213.41 35.4559C214.345 36.3367 215.073 37.3703 215.594 38.5566C216.133 39.743 216.403 41.0462 216.403 42.4662C216.403 43.8862 216.133 45.1984 215.594 46.4027C215.073 47.5891 214.345 48.6226 213.41 49.5034C212.475 50.3842 211.37 51.0673 210.094 51.5526C208.835 52.0379 207.442 52.2806 205.914 52.2806ZM205.914 47.8587C206.633 47.8587 207.299 47.7329 207.91 47.4812C208.539 47.2296 209.078 46.8701 209.527 46.4027C209.995 45.9174 210.354 45.3422 210.606 44.6771C210.876 44.012 211.01 43.2751 211.01 42.4662C211.01 41.6393 210.876 40.9024 210.606 40.2553C210.354 39.5902 209.995 39.024 209.527 38.5566C209.078 38.0713 208.539 37.7028 207.91 37.4512C207.299 37.1995 206.633 37.0737 205.914 37.0737C205.195 37.0737 204.521 37.1995 203.892 37.4512C203.281 37.7028 202.742 38.0713 202.275 38.5566C201.825 39.024 201.466 39.5902 201.196 40.2553C200.944 40.9024 200.819 41.6393 200.819 42.4662C200.819 43.2751 200.944 44.012 201.196 44.6771C201.466 45.3422 201.825 45.9174 202.275 46.4027C202.742 46.8701 203.281 47.2296 203.892 47.4812C204.521 47.7329 205.195 47.8587 205.914 47.8587Z" fill="black"/>
</svg>
